<?xml version="1.0" encoding="UTF-8" standalone="no"?>
<svg
   xml:space="preserve"
   width="200.9191mm"
   height="43.781921mm"
   viewBox="0 0 200.9191 43.78192"
   version="1.1"
   id="svg8"
   sodipodi:docname="stack.svg"
   inkscape:version="1.3.1 (9b9bdc1480, 2023-11-25, custom)"
   xmlns:inkscape="http://www.inkscape.org/namespaces/inkscape"
   xmlns:sodipodi="http://sodipodi.sourceforge.net/DTD/sodipodi-0.dtd"
   xmlns:xlink="http://www.w3.org/1999/xlink"
   xmlns="http://www.w3.org/2000/svg"
   xmlns:svg="http://www.w3.org/2000/svg"
   xmlns:rdf="http://www.w3.org/1999/02/22-rdf-syntax-ns#"
   xmlns:cc="http://creativecommons.org/ns#"
   xmlns:dc="http://purl.org/dc/elements/1.1/"><sodipodi:namedview
     id="namedview1"
     pagecolor="#ffffff"
     bordercolor="#000000"
     borderopacity="0.25"
     inkscape:showpageshadow="2"
     inkscape:pageopacity="0.0"
     inkscape:pagecheckerboard="0"
     inkscape:deskcolor="#d1d1d1"
     inkscape:document-units="mm"
     showgrid="false"
     inkscape:zoom="0.87095436"
     inkscape:cx="241.11482"
     inkscape:cy="152.70605"
     inkscape:window-width="1846"
     inkscape:window-height="1016"
     inkscape:window-x="74"
     inkscape:window-y="27"
     inkscape:window-maximized="1"
     inkscape:current-layer="svg8" /><defs
     id="defs2"><style
       id="style1013">.cls-1{fill:none;}.cls-2{fill:#d5d2ca;}.cls-3{fill:#e0684b;}.cls-4{fill:#bb464b;}.cls-5{fill:#e0ded8;}.cls-6{fill:#fff;}</style><clipPath
       id="clipPath2"
       clipPathUnits="userSpaceOnUse"><rect
         y="75.322548"
         x="107.47176"
         height="35.368919"
         width="32.35524"
         id="rect2"
         style="fill:#000000;stroke-width:0.264583" /></clipPath><clipPath
       id="clipPath3444"
       clipPathUnits="userSpaceOnUse">
      <path
   id="path3446"
   d="M 11.52,162 C 11.52,81.677 135.307,16.561 288,16.561 v 0 c 152.693,0 276.481,65.116 276.481,145.439 v 0 c 0,80.322 -123.788,145.439 -276.481,145.439 v 0 C 135.307,307.439 11.52,242.322 11.52,162" />
    </clipPath><radialGradient
       spreadMethod="pad"
       r="1"
       id="radialGradient3452"
       gradientUnits="userSpaceOnUse"
       gradientTransform="matrix(363.05789,0,0,-363.05789,177.52002,256.30713)"
       fy="0"
       fx="0"
       cy="0"
       cx="0">
      <stop
   style="stop-opacity:1;stop-color:#aeb2d5"
   offset="0"
   id="stop3454" />
      <stop
   style="stop-opacity:1;stop-color:#aeb2d5"
   offset="0.3"
   id="stop3456" />
      <stop
   style="stop-opacity:1;stop-color:#484c89"
   offset="0.75"
   id="stop3458" />
      <stop
   style="stop-opacity:1;stop-color:#484c89"
   offset="1"
   id="stop3460" />
    </radialGradient><clipPath
       id="clipPath3468"
       clipPathUnits="userSpaceOnUse">
      <path
   id="path3470"
   d="M 0,324 H 576 V 0 H 0 Z" />
    </clipPath><clipPath
       id="clipPath3480"
       clipPathUnits="userSpaceOnUse">
      <path
   id="path3482"
   d="M 0,324 H 576 V 0 H 0 Z" />
    </clipPath><linearGradient
       gradientUnits="userSpaceOnUse"
       y2="0"
       y1="100"
       x2="100"
       x1="0"
       id="gradient"><stop
         stop-color="#0a00b2"
         offset="0%"
         id="stop2" /><stop
         stop-color="red"
         offset="50%"
         id="stop4" /><stop
         stop-color="#fffc00"
         offset="100%"
         id="stop6" /></linearGradient><linearGradient
       gradientUnits="userSpaceOnUse"
       y2="0"
       y1="100"
       x2="100"
       x1="0"
       id="linearGradient873"
       xlink:href="#gradient" /><style
       id="style9">.petal{opacity:.65}</style><linearGradient
       y2="0"
       x2="100"
       y1="100"
       x1="0"
       gradientUnits="userSpaceOnUse"
       id="linearGradient5"
       xlink:href="#gradient" /><linearGradient
       y2="0"
       x2="100"
       y1="100"
       x1="0"
       gradientUnits="userSpaceOnUse"
       id="linearGradient6"
       xlink:href="#gradient" /><linearGradient
       y2="0"
       x2="100"
       y1="100"
       x1="0"
       gradientUnits="userSpaceOnUse"
       id="linearGradient7"
       xlink:href="#gradient" /><linearGradient
       y2="0"
       x2="100"
       y1="100"
       x1="0"
       gradientUnits="userSpaceOnUse"
       id="linearGradient8"
       xlink:href="#gradient" /><linearGradient
       y2="0"
       x2="100"
       y1="100"
       x1="0"
       gradientUnits="userSpaceOnUse"
       id="linearGradient9"
       xlink:href="#gradient" /><linearGradient
       y2="0"
       x2="100"
       y1="100"
       x1="0"
       gradientUnits="userSpaceOnUse"
       id="linearGradient10"
       xlink:href="#gradient" /><linearGradient
       y2="0"
       x2="100"
       y1="100"
       x1="0"
       gradientUnits="userSpaceOnUse"
       id="linearGradient11"
       xlink:href="#gradient" /><linearGradient
       y2="0"
       x2="100"
       y1="100"
       x1="0"
       gradientUnits="userSpaceOnUse"
       id="linearGradient12"
       xlink:href="#gradient" /><linearGradient
       y2="0"
       x2="100"
       y1="100"
       x1="0"
       gradientUnits="userSpaceOnUse"
       id="linearGradient13"
       xlink:href="#gradient" /><linearGradient
       y2="0"
       x2="100"
       y1="100"
       x1="0"
       gradientUnits="userSpaceOnUse"
       id="linearGradient14"
       xlink:href="#gradient" /><linearGradient
       y2="0"
       x2="100"
       y1="100"
       x1="0"
       gradientUnits="userSpaceOnUse"
       id="linearGradient15"
       xlink:href="#gradient" /><linearGradient
       y2="0"
       x2="100"
       y1="100"
       x1="0"
       gradientUnits="userSpaceOnUse"
       id="linearGradient16"
       xlink:href="#gradient" /><linearGradient
       y2="0"
       x2="100"
       y1="100"
       x1="0"
       gradientUnits="userSpaceOnUse"
       id="linearGradient17"
       xlink:href="#gradient" /><linearGradient
       y2="0"
       x2="100"
       y1="100"
       x1="0"
       gradientUnits="userSpaceOnUse"
       id="linearGradient18"
       xlink:href="#gradient" /><linearGradient
       y2="0"
       x2="100"
       y1="100"
       x1="0"
       gradientUnits="userSpaceOnUse"
       id="linearGradient19"
       xlink:href="#gradient" /><linearGradient
       y2="0"
       x2="100"
       y1="100"
       x1="0"
       gradientUnits="userSpaceOnUse"
       id="linearGradient20"
       xlink:href="#gradient" /><linearGradient
       y2="0"
       x2="100"
       y1="100"
       x1="0"
       gradientUnits="userSpaceOnUse"
       id="linearGradient21"
       xlink:href="#gradient" /><linearGradient
       y2="0"
       x2="100"
       y1="100"
       x1="0"
       gradientUnits="userSpaceOnUse"
       id="linearGradient22"
       xlink:href="#gradient" /><linearGradient
       y2="0"
       x2="100"
       y1="100"
       x1="0"
       gradientUnits="userSpaceOnUse"
       id="linearGradient23"
       xlink:href="#gradient" /><linearGradient
       y2="0"
       x2="100"
       y1="100"
       x1="0"
       gradientUnits="userSpaceOnUse"
       id="linearGradient24"
       xlink:href="#gradient" /><linearGradient
       y2="0"
       x2="100"
       y1="100"
       x1="0"
       gradientUnits="userSpaceOnUse"
       id="linearGradient25"
       xlink:href="#gradient" /><linearGradient
       y2="0"
       x2="100"
       y1="100"
       x1="0"
       gradientUnits="userSpaceOnUse"
       id="linearGradient26"
       xlink:href="#gradient" /><linearGradient
       y2="0"
       x2="100"
       y1="100"
       x1="0"
       gradientUnits="userSpaceOnUse"
       id="linearGradient27"
       xlink:href="#gradient" /><linearGradient
       y2="0"
       x2="100"
       y1="100"
       x1="0"
       gradientUnits="userSpaceOnUse"
       id="linearGradient28"
       xlink:href="#gradient" /><clipPath
       id="clipPath18"
       clipPathUnits="userSpaceOnUse"><path
         id="path20-3"
         d="m 275.945,28.6719 -29.961,9.9179 c 0,0 3.821,151.6402 -50.867,162.2582 -36.062,41.785 5.551,1784.892 136.559,5.972 0,0 -44.84,-22.515 -53.328,-60.75 -8.485,-38.261 -2.403,-117.3981 -2.403,-117.3981 z" /></clipPath><linearGradient
       id="linearGradient22-2"
       spreadMethod="pad"
       gradientTransform="matrix(344.394,-116.194,-104.815,-309.067,77.7619,575.995)"
       gradientUnits="userSpaceOnUse"
       y2="0"
       x2="1"
       y1="0"
       x1="0"><stop
         id="stop24"
         offset="0"
         style="stop-opacity:1;stop-color:#929669" /><stop
         id="stop26"
         offset="0.230769"
         style="stop-opacity:1;stop-color:#929669" /><stop
         id="stop28"
         offset="1"
         style="stop-opacity:1;stop-color:#fdfcf1" /></linearGradient><clipPath
       id="clipPath36"
       clipPathUnits="userSpaceOnUse"><path
         id="path38-0"
         d="m 292.098,175.105 c 0,0 260.343,171.469 199.351,527.575 -58.738,258.718 -197.418,343.77 -212.32,376.24 -16.406,22.98 -32.93,63.71 -32.93,63.71 l 11.074,-720.864 c 0,0 -22.906,-220.11 34.825,-246.661 z" /></clipPath><linearGradient
       id="linearGradient40"
       spreadMethod="pad"
       gradientTransform="matrix(241.166,-936.211,-1007.33,-161.502,203.932,1135.85)"
       gradientUnits="userSpaceOnUse"
       y2="0"
       x2="1"
       y1="0"
       x1="0"><stop
         id="stop42"
         offset="0"
         style="stop-opacity:1;stop-color:#45aa3a" /><stop
         id="stop44"
         offset="1"
         style="stop-opacity:1;stop-color:#3d9439" /></linearGradient><clipPath
       id="clipPath52"
       clipPathUnits="userSpaceOnUse"><path
         id="path54-6"
         d="m 230.742,165.523 c 0,0 -244.2108,166.598 -230.159969,460.543 C 14.6367,920.02 187.121,1064.55 220.715,1090.77 c 21.719,23.15 22.617,32.07 24.297,54.91 15.222,-32.7 12.691,-488.422 14.304,-541.688 6.258,-207.351 -11.484,-399.328 -28.574,-438.469 z" /></clipPath><linearGradient
       id="linearGradient56"
       spreadMethod="pad"
       gradientTransform="matrix(422.095,95.9042,131.897,-394.11,-25.0834,595.855)"
       gradientUnits="userSpaceOnUse"
       y2="0"
       x2="1"
       y1="0"
       x1="0"><stop
         id="stop58"
         offset="0"
         style="stop-opacity:1;stop-color:#41a83b" /><stop
         id="stop60"
         offset="1"
         style="stop-opacity:1;stop-color:#5ebc44" /></linearGradient><path
       id="SVGID_1_"
       d="M 250,25 C 125.736,25 25,125.735 25,249.998 c 0,0.001 0,0.001 0,0.002 0,124.264 100.735,225 224.998,225 0.001,0 0.001,0 0.002,0 124.264,0 225,-100.735 225,-224.998 0,-0.001 0,-0.001 0,-0.002 C 475,125.736 374.265,25 250.002,25 c -0.001,0 -0.001,0 -0.002,0 z m 0,119.416 c 58.312,0 105.584,47.271 105.584,105.584 0,0 0,0 0,0 0,58.312 -47.271,105.584 -105.584,105.584 0,0 0,0 0,0 -58.312,0 -105.584,-47.271 -105.584,-105.584 0,0 0,0 0,0 0,-58.312 47.271,-105.584 105.584,-105.584 z" /></defs><metadata
     id="metadata5"><rdf:RDF><cc:Work
         rdf:about=""><dc:format>image/svg+xml</dc:format><dc:type
           rdf:resource="http://purl.org/dc/dcmitype/StillImage" /></cc:Work></rdf:RDF></metadata><path
     style="fill:#2497ed;fill-opacity:1;stroke-width:0.0540269"
     d="m 164.19191,41.32118 c -3.01458,-0.165828 -4.94921,-0.471551 -7.17812,-1.134722 -0.72301,-0.215084 -1.86185,-0.66077 -2.4612,-0.963079 -2.9614,-1.493916 -5.17489,-4.301737 -6.51022,-8.258315 -0.83217,-2.465669 -1.31828,-5.550467 -1.26592,-8.033417 0.0184,-0.871249 0.0223,-0.89803 0.17923,-1.181279 0.1748,-0.31548 0.48347,-0.598841 0.81612,-0.74906 0.2011,-0.09079 1.15542,-0.09705 18.66214,-0.122903 l 18.45015,-0.02715 0.67399,-0.126577 c 0.78019,-0.146752 1.42747,-0.326376 1.99844,-0.555035 0.57365,-0.229721 0.56608,-0.216789 0.34924,-0.586897 -0.33791,-0.576551 -0.64446,-1.393226 -0.8162,-2.174349 -0.15195,-0.690872 -0.1365,-2.407051 0.0287,-3.175095 0.26982,-1.255536 0.84634,-2.651183 1.49523,-3.619782 0.49688,-0.7416839 0.3997,-0.7142419 1.0848,-0.30629 2.02086,1.202852 3.47212,3.200806 3.94428,5.430077 l 0.0955,0.450334 0.2194,-0.03412 c 1.02005,-0.151886 2.61712,-0.190593 3.40703,-0.082 0.94703,0.129685 1.81521,0.377318 2.45823,0.700832 0.24636,0.123831 0.72502,0.454876 1.06382,0.735484 0.0613,0.05063 0.0424,0.148778 -0.1116,0.579744 -0.62341,1.744164 -2.13319,3.284691 -3.98455,4.065613 -0.99669,0.420444 -2.11368,0.647672 -3.43023,0.697898 -0.41131,0.01648 -0.76221,0.04586 -0.77977,0.06732 -0.0184,0.02036 -0.18611,0.415748 -0.37452,0.876348 -2.39092,5.844906 -5.54579,9.980246 -9.86088,12.925538 -2.72248,1.858264 -6.15909,3.248426 -9.83288,3.977545 -1.35162,0.26817 -2.18334,0.376564 -4.40318,0.573303 -0.41454,0.03669 -3.44846,0.07448 -3.91697,0.04861 z M 151.46856,19.690027 c -0.12843,-0.128226 -0.11779,0.100152 -0.12019,-2.563041 l -0.002,-2.157848 0.14509,-0.124923 0.14508,-0.124922 h 2.50199 c 2.44933,0 2.50491,0.0018 2.6443,0.111899 l 0.14234,0.111899 v 2.319276 c 0,2.247174 -0.003,2.322569 -0.108,2.427275 -0.10508,0.105115 -0.18015,0.107862 -2.67433,0.107862 -2.49426,0 -2.56933,-0.0036 -2.67434,-0.107862 z m 6.5913,0 c -0.10474,-0.104737 -0.108,-0.179956 -0.108,-2.427277 v -2.319202 l 0.14234,-0.111899 c 0.13942,-0.109514 0.195,-0.111899 2.64003,-0.111899 2.44502,0 2.50067,0.0018 2.64004,0.111899 l 0.14234,0.111899 v 2.319238 c 0,2.247175 -0.003,2.322588 -0.108,2.427277 -0.10508,0.105115 -0.18015,0.108222 -2.67433,0.108222 -2.49426,0 -2.56933,-0.0036 -2.67434,-0.108222 z m 6.69935,0 c -0.12844,-0.128226 -0.11779,0.100152 -0.12019,-2.563041 l -0.002,-2.157848 0.14508,-0.124923 0.14509,-0.124922 h 2.50195 c 2.44935,0 2.50495,0.0018 2.6443,0.111899 l 0.14234,0.111899 v 2.319276 c 0,2.247174 -0.003,2.322569 -0.108,2.427275 -0.10508,0.105115 -0.18013,0.107862 -2.67433,0.107862 -2.49422,0 -2.56929,-0.0036 -2.67434,-0.107862 z m 6.59519,-0.03431 c -0.1092,-0.138872 -0.11195,-0.19773 -0.11195,-2.398202 0,-2.140366 0.005,-2.262408 0.10337,-2.383423 l 0.10319,-0.127675 2.572,-0.01284 2.57203,-0.01284 0.1341,0.134094 0.1341,0.134095 v 2.264302 c 0,2.208927 -0.002,2.267776 -0.11195,2.406657 l -0.11195,0.142357 h -2.58546 -2.58544 z m 6.6954,0.03431 c -0.10474,-0.104737 -0.108,-0.179956 -0.108,-2.427277 v -2.319202 l 0.14234,-0.111899 c 0.13942,-0.109514 0.19495,-0.111899 2.64429,-0.111899 h 2.50194 l 0.14543,0.124923 0.14543,0.124922 -0.002,2.130589 c -0.002,2.672388 0.007,2.46257 -0.12036,2.589786 -0.10508,0.105115 -0.18013,0.108223 -2.67434,0.108223 -2.49422,0 -2.56929,-0.0036 -2.6743,-0.108223 z m -19.95564,-6.108978 -0.14234,-0.111899 v -2.31923 c 0,-2.2472109 0.003,-2.3225869 0.108,-2.4273119 0.10508,-0.105112 0.18013,-0.10823 2.67434,-0.10823 2.49423,0 2.5693,0.0037 2.67431,0.10823 0.10474,0.104744 0.108,0.179954 0.108,2.4273119 v 2.31923 l -0.14234,0.111899 c -0.13942,0.109514 -0.19501,0.111899 -2.64002,0.111899 -2.44505,0 -2.5007,-0.0018 -2.64007,-0.111899 z m 6.6868,-0.01284 -0.14646,-0.125839 0.003,-2.156757 c 0.002,-1.186214 0.005,-2.2236389 0.009,-2.3053439 0.002,-0.08163 0.0534,-0.197051 0.11281,-0.256613 0.10508,-0.105112 0.18013,-0.10823 2.67433,-0.10823 2.49424,0 2.56931,0.0037 2.67432,0.10823 0.10473,0.104744 0.108,0.180138 0.108,2.4273119 v 2.31923 l -0.14234,0.111899 c -0.13942,0.109514 -0.19497,0.111899 -2.64431,0.111899 h -2.50196 z m 6.69461,0.07154 c -0.0649,-0.02715 -0.14406,-0.09594 -0.17555,-0.15519 -0.0381,-0.07117 -0.0575,-0.865414 -0.0575,-2.345902 0,-2.1827319 0.003,-2.2419459 0.11195,-2.3807549 l 0.11195,-0.14235 h 2.58543 2.58546 l 0.11195,0.14235 c 0.1092,0.138864 0.11195,0.19806 0.11143,2.3366749 -4.4e-4,1.206869 -0.0155,2.249981 -0.0338,2.318037 -0.0735,0.274298 -0.14663,0.281801 -2.78562,0.27804 -1.34607,-0.0018 -2.5005,-0.02385 -2.56542,-0.051 z m -0.12105,-6.2470069 c -0.10937,-0.138864 -0.11195,-0.19773 -0.11195,-2.406657 v -2.264272 l 0.1341,-0.134094 0.1341,-0.134095 2.572,0.01284 2.57202,0.01284 0.10319,0.127674 c 0.098,0.121253 0.10336,0.243003 0.10336,2.383416 0,2.200379 -0.002,2.259373 -0.11195,2.398219 l -0.11194,0.14235 h -2.58543 -2.58546 z"
     id="path277" /><style
     id="style1"
     type="text/css">
	.st0{opacity:0.2;}
	.st1{fill:#390075;}
	.st2{opacity:0.35;}
	.st3{fill:#FFFFFF;}
	.st4{opacity:0.15;}
	.st5{fill:#B3D133;}
	.st6{fill:#C3B2D3;}
	.st7{opacity:0.7;}
	.st8{opacity:0.3;}
	.st9{opacity:0.29;}
	.st10{opacity:0.48;}
</style><style
     id="style1-2">
    .st2{fill:#495466}
  </style><style
     id="style1-3">
    .st2{fill:#495466}
  </style><style
     id="style1-4">
    .st2{fill:#495466}
  </style><g
     transform="matrix(0.08756385,0,0,0.08756385,20.303416,-21.891008)"
     id="g124">
	<path
   style="fill:#f6d2a2"
   d="m 312.793,520.329 c 0.704,14.774 15.634,7.817 22.122,3.283 6.488,-4.534 7.817,-0.704 8.755,-9.381 0.576,-5.661 0.811,-11.352 0.704,-17.041 -9.851,-1.008 -19.74,1.513 -27.907,7.114 -4.065,2.97 -11.647,12.351 -3.752,15.634"
   id="path92" />
	<path
   style="fill:#010101"
   d="m 320.454,531.039 c -1.461,0.02 -2.906,-0.301 -4.221,-0.938 -3.063,-1.768 -4.921,-5.063 -4.847,-8.599 -1.966,-0.979 -3.293,-2.897 -3.518,-5.081 0.567,-5.266 3.427,-10.013 7.817,-12.976 8.433,-5.806 18.662,-8.411 28.845,-7.348 h 1.173 v 1.173 c 0.163,4.46 0.033,8.925 -0.391,13.367 v 3.909 c -0.391,6.097 -1.563,7.035 -4.69,7.817 -1.668,0.516 -3.249,1.281 -4.69,2.267 -4.498,3.473 -9.841,5.686 -15.478,6.409 z m 19.855,-32.285 c -8.21,-0.127 -16.251,2.335 -22.982,7.035 -3.535,2.441 -5.91,6.229 -6.566,10.475 0.196,1.491 1.229,2.737 2.658,3.205 h 0.782 v 0.86 c -0.23,2.761 1.019,5.438 3.283,7.035 5.994,0.93 12.092,-0.845 16.65,-4.847 1.631,-1.144 3.422,-2.039 5.316,-2.658 2.032,-0.703 2.501,-0.86 2.814,-5.706 v -3.909 c 0.366,-3.897 0.522,-7.812 0.469,-11.726 h -2.423 v 0.236 z"
   id="path93" />
	<path
   style="fill:#c7b199"
   d="m 312.793,520.329 c 2.234,-0.495 4.274,-1.637 5.863,-3.283"
   id="path94" />
	<path
   style="fill:#010101"
   d="m 312.793,521.736 c -0.756,0.237 -1.56,-0.182 -1.798,-0.938 -0.237,-0.755 0.183,-1.56 0.938,-1.798 h 0.938 c 1.652,-0.383 3.15,-1.255 4.299,-2.501 0.475,-0.626 1.367,-0.749 1.993,-0.274 0.626,0.475 0.749,1.367 0.274,1.993 v 0 c -1.478,1.698 -3.443,2.899 -5.628,3.44 h -1.016 z"
   id="path95" />
	<path
   style="fill:#74cddd"
   d="m 346.875,344.522 c -56.518,-15.634 -14.462,-87.786 31.268,-58.237 z"
   id="path96" />
	<path
   style="fill:#010101"
   d="m 347.579,346.164 h -1.094 c -16.103,-4.534 -26.031,-14.071 -27.907,-26.813 -1.356,-14.13 5.394,-27.812 17.432,-35.333 13.121,-8.301 29.982,-7.743 42.525,1.407 l 1.094,0.704 z m 7.817,-65.507 c -6.415,0.008 -12.689,1.882 -18.058,5.394 -11.143,6.915 -17.411,19.541 -16.181,32.597 1.72,11.335 10.475,19.934 24.78,24.233 l 29.705,-56.049 c -6.009,-3.758 -12.926,-5.812 -20.012,-5.941 z"
   id="path97" />
	<path
   style="fill:#74cddd"
   d="m 597.961,280.891 c 44.714,-31.268 85.128,39.086 33.145,57.299 z"
   id="path98" />
	<path
   style="fill:#010101"
   d="m 630.48,339.91 -34.395,-59.41 1.016,-0.704 c 11.708,-9.385 27.933,-10.745 41.04,-3.44 12.329,7.221 19.552,20.759 18.683,35.021 -0.782,7.817 -5.003,21.184 -25.249,28.142 z m -30.643,-58.628 31.894,55.189 c 11.834,-3.209 20.605,-13.18 22.279,-25.327 0.835,-13.209 -5.849,-25.761 -17.276,-32.441 -11.685,-6.699 -26.258,-5.681 -36.897,2.579 z"
   id="path99" />
	<path
   style="fill:#f6d2a2"
   d="m 607.576,701.999 c 11.335,7.035 32.128,28.298 15.087,38.617 -16.338,15.009 -25.562,-16.494 -39.945,-20.794 5.58,-9.016 14.528,-15.432 24.858,-17.823 z"
   id="path100" />
	<path
   style="fill:#010101"
   d="m 613.986,746.009 h -0.625 c -6.488,-0.391 -11.804,-6.723 -16.963,-12.742 -3.565,-5.187 -8.413,-9.361 -14.071,-12.117 l -1.876,-0.547 1.173,-1.954 c 5.815,-9.275 15.059,-15.878 25.718,-18.37 h 1.016 c 7.27,4.534 22.279,17.667 22.201,29.549 -0.092,4.782 -2.791,9.131 -7.035,11.335 -2.423,2.801 -5.847,4.541 -9.538,4.846 z m -29.08,-26.891 c 5.303,3.119 9.906,7.297 13.524,12.273 3.418,5.614 8.747,9.806 15.009,11.804 2.993,-0.128 5.809,-1.451 7.817,-3.674 3.476,-1.699 5.709,-5.2 5.785,-9.068 0,-9.537 -12.038,-21.497 -20.403,-26.891 -8.911,2.291 -16.638,7.842 -21.653,15.556 z"
   id="path101" />
	<path
   style="fill:#010101"
   d="m 622.663,742.101 c -0.531,-0.004 -1.015,-0.306 -1.251,-0.782 -0.827,-1.73 -1.557,-3.505 -2.189,-5.316 -0.951,-3.538 -2.718,-6.805 -5.159,-9.537 -0.561,-0.54 -0.579,-1.432 -0.039,-1.993 0.54,-0.561 1.432,-0.579 1.993,-0.039 2.699,2.947 4.679,6.479 5.785,10.319 0.613,1.705 1.317,3.375 2.111,5.003 0.34,0.691 0.062,1.527 -0.625,1.876 z"
   id="path102" />
	<path
   style="fill:#f6d2a2"
   d="m 404.566,725.997 c -13.367,2.032 -20.872,14.071 -31.972,20.168 -3.934,3.631 -10.066,3.386 -13.697,-0.547 -0.839,-0.909 -1.497,-1.97 -1.937,-3.127 -1.572,0.037 -3.073,-0.655 -4.065,-1.876 -9.693,-15.634 10.084,-26.5 20.481,-34.161 14.617,-2.814 23.607,9.615 31.19,19.543 z"
   id="path103" />
	<path
   style="fill:#010101"
   d="m 365.558,749.918 c -0.83,0.11 -1.671,0.11 -2.501,0 -2.964,-0.959 -5.416,-3.073 -6.801,-5.863 -1.532,-0.011 -2.962,-0.77 -3.83,-2.032 -9.381,-14.774 6.566,-25.953 17.119,-33.379 l 3.674,-2.658 c 14.774,-2.971 24.155,9.224 31.659,19.074 l 2.111,2.814 h -2.345 c -7.543,1.802 -14.409,5.737 -19.777,11.335 -3.6,3.31 -7.529,6.243 -11.726,8.755 -2.321,1.283 -4.93,1.956 -7.583,1.954 z m -9.38,-9.068 c 0.541,-0.119 1.101,-0.119 1.642,0 h 0.391 l 0.625,1.251 c 1.027,2.234 2.917,3.955 5.237,4.768 2.75,0.413 5.554,-0.259 7.817,-1.876 4.054,-2.423 7.852,-5.252 11.335,-8.442 5.276,-5.274 11.735,-9.214 18.839,-11.491 -7.192,-9.38 -15.634,-19.543 -27.907,-17.198 l -3.518,2.501 c -10.788,7.817 -24.155,17.041 -16.416,29.471 0.351,0.596 0.956,0.999 1.642,1.094 z"
   id="path104" />
	<path
   style="fill:#010101"
   d="m 357.194,743.977 c -0.776,0.045 -1.441,-0.548 -1.486,-1.323 -0.011,-0.188 0.016,-0.376 0.079,-0.553 0.576,-3.755 2.141,-7.289 4.534,-10.24 1.132,-1.552 2.126,-3.2 2.97,-4.925 0.324,-0.712 1.164,-1.027 1.876,-0.704 0.712,0.323 1.027,1.164 0.704,1.876 -0.908,1.889 -1.98,3.694 -3.205,5.394 -2.064,2.656 -3.386,5.812 -3.83,9.146 -0.032,0.776 -0.688,1.38 -1.464,1.348 -0.06,-0.003 -0.119,-0.009 -0.178,-0.019 z m -7.974,-419.31 c -7.817,-3.909 -12.898,-9.302 -8.364,-17.901 4.534,-8.599 12.038,-7.114 19.543,-3.205 z m 270.082,-7.505 c 7.817,-3.909 12.898,-9.302 8.364,-17.901 -4.534,-8.599 -12.038,-7.114 -19.543,-3.205 z"
   id="path105" />
	<path
   style="fill:#f6d2a2"
   d="m 670.66,518.453 c -0.704,14.774 -15.634,7.817 -22.122,3.283 -6.488,-4.534 -7.817,-0.704 -8.755,-9.381 -0.576,-5.661 -0.811,-11.352 -0.703,-17.041 9.851,-1.008 19.74,1.513 27.907,7.114 4.065,2.971 11.648,12.351 3.752,15.634"
   id="path106" />
	<path
   style="fill:#010101"
   d="m 662.999,528.85 c -5.373,-0.584 -10.509,-2.521 -14.931,-5.628 -1.441,-0.986 -3.022,-1.75 -4.69,-2.267 -3.127,-1.094 -4.299,-2.032 -4.69,-7.817 v -3.909 c -0.424,-4.442 -0.554,-8.908 -0.391,-13.367 v -1.876 h 1.173 c 10.183,-1.063 20.412,1.542 28.845,7.348 4.39,2.963 7.25,7.711 7.817,12.976 -0.225,2.184 -1.552,4.102 -3.518,5.081 0.074,3.536 -1.783,6.831 -4.847,8.599 -1.487,0.696 -3.131,0.992 -4.768,0.86 z m -22.748,-32.207 c -0.053,3.914 0.104,7.828 0.469,11.726 v 3.909 c 0,4.768 0.704,4.925 2.814,5.706 1.893,0.619 3.685,1.514 5.316,2.658 4.553,4.011 10.656,5.788 16.65,4.847 2.264,-1.598 3.513,-4.274 3.283,-7.035 v -0.938 h 0.782 c 1.429,-0.468 2.462,-1.714 2.658,-3.205 -0.657,-4.245 -3.031,-8.034 -6.566,-10.475 -7.406,-5.214 -16.366,-7.751 -25.406,-7.193 z"
   id="path107" />
	<path
   style="fill:#c7b199"
   d="m 670.66,518.453 c -2.208,-0.429 -4.244,-1.488 -5.863,-3.049"
   id="path108" />
	<path
   style="fill:#010101"
   d="m 670.66,519.86 h -1.485 c -2.189,-0.696 -4.103,-2.064 -5.472,-3.909 -0.475,-0.626 -0.352,-1.518 0.274,-1.993 0.626,-0.475 1.518,-0.352 1.993,0.274 1.149,1.247 2.648,2.118 4.299,2.501 h 0.938 c 0.863,0.151 1.441,0.974 1.29,1.837 -0.151,0.864 -0.974,1.441 -1.837,1.29 z"
   id="path109" />
	<path
   style="fill:#74cddd"
   d="m 486.098,251.03 c 56.596,0 109.44,7.817 137.268,62.537 24.78,60.895 15.634,126.637 19.777,190.972 3.283,55.267 10.475,119.133 -15.165,170.413 -26.813,53.782 -94.509,67.149 -150.01,65.351 -43.619,-1.563 -96.307,-15.634 -120.931,-55.658 -28.923,-46.903 -15.243,-116.319 -13.133,-168.302 2.501,-61.599 -16.729,-123.432 3.518,-183.78 21.028,-62.537 77.624,-76.686 138.597,-81.532"
   id="path110" />
	<path
   style="fill:#010101"
   d="m 487.583,742.101 h -9.693 c -23.301,-0.655 -46.323,-5.254 -68.087,-13.602 -22.158,-8.032 -41.113,-23.036 -54.016,-42.76 -23.451,-37.835 -19.23,-90.053 -15.634,-136.174 0.938,-11.569 1.798,-22.591 2.189,-32.91 0.414,-21.873 -0.526,-43.751 -2.814,-65.507 -3.283,-39.086 -6.723,-79.5 6.41,-118.664 8.567,-27.82 28.42,-50.764 54.72,-63.24 21.106,-10.319 46.903,-16.26 84.816,-19.23 55.814,-0.391 110.847,7.426 139.145,62.85 18.136,44.558 18.37,92.398 18.683,138.676 0,17.354 0,35.255 1.251,52.766 0,5.316 0.625,10.709 1.016,16.103 3.283,50.733 7.035,108.345 -16.338,154.935 -29.238,58.314 -102.718,66.757 -141.648,66.757 z m -1.485,-489.664 c -58.863,5.003 -116.24,17.667 -137.347,80.594 -12.976,38.617 -9.537,78.718 -6.332,117.257 2.296,21.861 3.236,43.843 2.814,65.82 -0.391,10.397 -1.329,21.419 -2.189,33.066 -3.596,45.652 -7.817,97.479 15.087,134.454 9.615,15.634 40.571,52.14 119.836,54.72 34.317,1.251 117.257,-2.658 148.525,-64.726 22.982,-45.965 19.308,-103.108 16.025,-153.528 0,-5.472 -0.704,-10.866 -1.016,-16.103 -0.86,-17.041 -1.251,-35.021 -1.251,-52.375 0,-45.965 -0.469,-93.805 -18.448,-137.581 -11.565,-23.797 -32.039,-42.079 -56.987,-50.889 -25.435,-8.035 -52.059,-11.657 -78.717,-10.709 z"
   id="path111" />
	<path
   style="fill:#ffffff"
   d="m 496.026,326.934 c 10.162,59.019 106.625,43.463 92.789,-16.103 -12.429,-53.391 -96.151,-38.617 -92.789,16.103"
   id="path112" />
	<path
   style="fill:#010101"
   d="m 541.912,365.472 c -6.009,0.025 -11.98,-0.952 -17.667,-2.892 -15.784,-5.222 -27.237,-18.948 -29.549,-35.411 -1.062,-12.778 3.373,-25.403 12.195,-34.708 8.366,-8.583 19.383,-14.091 31.268,-15.634 10.893,-1.724 22.051,0.2 31.737,5.472 10.451,6.104 17.812,16.364 20.246,28.22 4.292,15.119 -0.375,31.364 -12.038,41.9 -10.085,8.588 -22.945,13.226 -36.192,13.053 z m -44.479,-38.694 c 2.183,15.449 12.937,28.324 27.751,33.223 17.592,5.883 36.978,2.213 51.202,-9.693 10.742,-9.913 15.054,-24.992 11.178,-39.086 -4.99,-22.11 -26.712,-36.199 -48.935,-31.737 -24.239,2.074 -42.465,22.998 -41.196,47.293 z"
   id="path113" />
	<path
   style="fill:#ffffff"
   d="m 380.723,336.549 c 13.133,51.358 95.369,38.147 92.32,-13.367 -3.674,-61.756 -104.905,-50.108 -92.32,13.367"
   id="path114" />
	<path
   style="fill:#010101"
   d="m 424.656,370.397 c -8.362,0.063 -16.608,-1.952 -23.999,-5.863 -10.701,-5.799 -18.411,-15.899 -21.184,-27.751 -4.163,-16.329 1.579,-33.587 14.696,-44.167 15.808,-12.062 36.86,-14.746 55.189,-7.035 14.958,6.54 24.731,21.199 25.015,37.522 1.642,27.36 -20.09,43.307 -40.883,46.903 -2.931,0.358 -5.884,0.489 -8.834,0.391 z m -42.369,-34.161 c 5.629,22.608 28.348,36.525 51.046,31.268 19.699,-3.127 40.258,-18.136 38.695,-43.854 -0.193,-15.363 -9.369,-29.189 -23.451,-35.333 -17.426,-7.314 -37.434,-4.75 -52.453,6.723 -12.199,9.896 -17.589,25.944 -13.837,41.196 z"
   id="path115" />
	<path
   style="fill:#ffffff"
   d="m 507.361,398.148 c 0.752,8.139 0.752,16.329 0,24.468 -2.289,2.897 -5.528,4.891 -9.146,5.628 -4.521,-0.694 -8.379,-3.639 -10.24,-7.817 -0.502,-9.228 -0.267,-18.482 0.704,-27.673 z"
   id="path116" />
	<path
   style="fill:#010101"
   d="m 499.074,429.416 h -0.391 c -5.052,-0.785 -9.339,-4.126 -11.335,-8.833 -0.649,-6.315 -0.649,-12.68 0,-18.996 0,-2.892 0.469,-5.941 0.547,-8.911 v -2.345 l 21.106,6.488 v 1.329 c 0,2.501 0,5.159 0.391,7.817 0.706,5.58 0.706,11.227 0,16.807 v 0.391 c -1.655,2.703 -4.334,4.62 -7.426,5.316 l -2.423,0.938 h -0.469 z m -9.067,-9.849 c 1.588,3.625 4.866,6.229 8.755,6.957 l 2.189,-0.86 c 2.356,-0.567 4.401,-2.024 5.706,-4.065 0.62,-5.193 0.62,-10.441 0,-15.634 0,-2.423 0,-4.768 -0.391,-7.114 l -15.634,-4.768 c 0,2.423 0,4.847 -0.469,7.192 -0.693,6.048 -0.771,12.15 -0.235,18.214 z"
   id="path117" />
	<ellipse
   style="fill:#010101"
   cx="403.39301"
   cy="328.10599"
   rx="13.914"
   ry="15.087"
   id="ellipse117" />
	<ellipse
   style="fill:#ffffff"
   cx="409.72501"
   cy="331.54599"
   rx="3.283"
   ry="3.8299999"
   id="ellipse118" />
	<ellipse
   style="fill:#010101"
   cx="519.86798"
   cy="324.354"
   rx="13.68"
   ry="15.087"
   id="ellipse119" />
	<ellipse
   style="fill:#ffffff"
   cx="526.04401"
   cy="327.79401"
   rx="3.2049999"
   ry="3.8299999"
   id="ellipse120" />
	<path
   style="fill:#ffffff"
   d="m 468.275,396.975 c -6.097,14.696 3.361,44.088 19.855,22.435 -0.502,-9.228 -0.267,-18.482 0.704,-27.673 z"
   id="path120" />
	<path
   style="fill:#010101"
   d="m 476.796,428.556 c -1.43,0.014 -2.836,-0.365 -4.065,-1.094 -6.645,-3.83 -10.788,-19.543 -6.097,-31.268 v -0.625 l 23.451,-5.941 v 1.876 c 0,3.049 0,6.097 -0.547,8.99 -0.637,6.133 -0.637,12.315 0,18.448 v 1.016 c -2.571,4.791 -7.337,8.007 -12.742,8.598 z m -7.739,-30.408 c -3.361,9.146 -0.704,23.451 5.159,26.813 4.221,2.423 8.911,-1.798 12.195,-6.019 -0.595,-6.135 -0.595,-12.313 0,-18.448 0,-2.267 0,-4.69 0.469,-7.035 z"
   id="path121" />
	<path
   style="fill:#f6d2a2"
   d="m 470.073,368.677 c -9.842,0.937 -17.061,9.674 -16.125,19.517 0.181,1.897 0.663,3.753 1.429,5.498 7.817,14.071 25.171,-1.251 35.959,0 12.429,0 22.67,13.133 32.676,2.345 11.1,-12.038 -4.768,-23.451 -17.198,-29.001 z"
   id="path122" />
	<path
   style="fill:#231f20"
   d="m 515.178,401.978 c -3.974,-0.331 -7.848,-1.419 -11.413,-3.205 -3.866,-1.909 -8.055,-3.075 -12.351,-3.44 -4.477,-0.002 -8.902,0.958 -12.976,2.814 -8.755,3.049 -18.683,6.488 -24.311,-3.596 -2.839,-5.104 -2.839,-11.312 0,-16.416 3.084,-5.967 8.956,-9.99 15.634,-10.709 l 37.6,-1.642 c 9.224,3.909 19.777,11.022 21.575,19.308 1.099,8.172 -4.635,15.689 -12.807,16.788 -0.316,0.044 -0.633,0.076 -0.951,0.098 z m -23.452,-9.459 c 4.622,0.375 9.131,1.622 13.289,3.674 7.035,2.97 12.586,5.237 18.214,-0.86 2.612,-2.4 3.82,-5.966 3.205,-9.459 -1.563,-7.192 -11.491,-13.758 -19.621,-17.198 l -36.35,1.485 c -5.68,0.696 -10.651,4.147 -13.289,9.224 -2.351,4.257 -2.351,9.423 0,13.68 4.456,7.817 12.429,5.237 20.95,2.345 4.279,-1.913 8.915,-2.899 13.602,-2.891 z"
   id="path123" />
	<path
   style="fill:#010101"
   d="m 468.275,368.13 c -0.86,-19.543 36.506,-22.044 40.883,-5.628 4.378,16.416 -39.085,20.168 -40.883,5.628 z"
   id="path124" />
</g><g
     id="g94"
     transform="matrix(0.09400773,0,0,0.09400773,89.638436,-1.6110182)">
	<path
   id="path4797"
   style="fill:#91b0e8"
   d="m 449.383,145.674 m 0,0 -182.158,0.071 c 50.16,8.226 88.436,51.767 88.436,104.256 -0.037,25.814 -9.522,50.721 -26.665,70.02 l -90.34,154.696 c 3.758,0.187 7.54,0.284 11.344,0.284 124.264,0 225,-100.736 225,-225 0,-37.656 -9.265,-73.141 -25.617,-104.327 z" />
	<path
   id="path3923"
   style="fill:#396bd7"
   d="M 250,25 C 169.107,25 98.196,67.696 58.543,131.775 l 87.802,138.276 c 0.407,6.581 -2.001,-19.578 -2.006,-20.051 0.001,-58.355 47.306,-105.661 105.661,-105.661 5.479,0.044 16.793,1.148 22.199,2.04 l 177.185,-0.705 C 411.774,73.944 336.609,25 250,25 Z M 58.516,131.818" />
	<path
   id="path3923-1"
   style="fill:#6199f6"
   d="M 58.543,131.775 C 37.283,166.131 25,206.629 25,250 c 0,120.46 94.663,218.807 213.656,224.716 l 90.34,-154.696 c -20.024,22.629 -48.779,35.603 -78.996,35.641 -50.591,-0.042 -94.054,-35.938 -103.655,-85.61 z" />
	<circle
   id="path4162"
   style="fill:#ffffff"
   cx="250"
   cy="250"
   r="105.662" />
	<circle
   id="path3956"
   style="fill:#4688f4"
   cx="250"
   cy="250"
   r="87.188004" />
	<g
   id="g93">
		<defs
   id="defs92">
			<path
   id="path69"
   d="M 250,25 C 125.736,25 25,125.735 25,249.998 c 0,0.001 0,0.001 0,0.002 0,124.264 100.735,225 224.998,225 0.001,0 0.001,0 0.002,0 124.264,0 225,-100.735 225,-224.998 0,-0.001 0,-0.001 0,-0.002 C 475,125.736 374.265,25 250.002,25 c -0.001,0 -0.001,0 -0.002,0 z m 0,119.416 c 58.312,0 105.584,47.271 105.584,105.584 0,0 0,0 0,0 0,58.312 -47.271,105.584 -105.584,105.584 0,0 0,0 0,0 -58.312,0 -105.584,-47.271 -105.584,-105.584 0,0 0,0 0,0 0,-58.312 47.271,-105.584 105.584,-105.584 z" />
		</defs>
		<clipPath
   id="SVGID_00000143612777125361620620000010043340089691743407_">
			<use
   xlink:href="#SVGID_1_"
   style="overflow:visible"
   id="use92" />
		</clipPath>
		
			<path
   id="rect5020-5-5"
   style="opacity:0.1;fill:#367100;enable-background:new"
   d="m 58.368,131.779 88.148,138.203 33.278,-36.817 z m 391.034,13.842 -177.203,0.758 17.448,40.442 z M 270.665,306.495 238.653,474.737 328.932,320.124 Z"
   clip-path="url(#SVGID_00000143612777125361620620000010043340089691743407_)" />
	</g>
</g><g
     id="g7"
     transform="matrix(0.07925131,0,0,0.07925131,-2.897824,1.602626)">
	<polygon
   style="fill:#b12a27"
   points="47.791,512 47.791,0.002 357.613,0.002 412.491,54.881 475.435,117.825 475.435,512 "
   id="polygon1" />
	<rect
   x="36.564999"
   y="34.294998"
   style="fill:#f2f2f2"
   width="205.097"
   height="91.767998"
   id="rect1" />
	<g
   id="g5">
		<g
   id="g3">
			<path
   style="fill:#b12a27"
   d="m 110.132,64.379 c -0.905,-2.186 -2.111,-4.146 -3.769,-5.804 -1.658,-1.658 -3.694,-3.015 -6.031,-3.92 -2.412,-0.98 -5.126,-1.432 -8.141,-1.432 h -22.54 v 58.195 H 81.034 V 89.481 h 11.157 c 3.015,0 5.729,-0.452 8.141,-1.432 2.337,-0.905 4.372,-2.261 6.031,-3.92 1.659,-1.658 2.865,-3.543 3.769,-5.804 0.829,-2.186 1.282,-4.523 1.282,-6.935 -0.001,-2.488 -0.453,-4.825 -1.282,-7.011 z M 97.844,77.118 c -1.508,1.432 -3.618,2.186 -6.181,2.186 H 81.034 V 63.323 h 10.629 c 2.563,0 4.674,0.754 6.181,2.261 1.432,1.432 2.186,3.392 2.186,5.804 0.001,2.338 -0.753,4.298 -2.186,5.73 z"
   id="path1" />
			<path
   style="fill:#b12a27"
   d="m 164.558,75.761 c -0.075,-2.035 -0.151,-3.844 -0.377,-5.503 -0.226,-1.659 -0.603,-3.166 -1.131,-4.598 -0.528,-1.357 -1.206,-2.714 -2.111,-3.92 -2.035,-2.94 -4.523,-5.126 -7.312,-6.483 -2.865,-1.357 -6.257,-2.035 -10.252,-2.035 h -20.956 v 58.195 h 20.956 c 3.995,0 7.387,-0.678 10.252,-2.035 2.789,-1.357 5.277,-3.543 7.312,-6.483 0.905,-1.206 1.583,-2.563 2.111,-3.92 0.528,-1.432 0.905,-2.94 1.131,-4.598 0.226,-1.658 0.301,-3.468 0.377,-5.503 0.075,-1.96 0.075,-4.146 0.075,-6.558 0,-2.412 0,-4.599 -0.075,-6.559 z M 153.175,88.2 c 0,1.734 -0.151,3.091 -0.302,4.297 -0.151,1.131 -0.377,2.186 -0.678,2.94 -0.301,0.829 -0.754,1.583 -1.281,2.261 -1.885,2.412 -4.749,3.543 -8.518,3.543 h -8.669 V 63.323 h 8.669 c 3.769,0 6.634,1.206 8.518,3.618 0.528,0.678 0.98,1.357 1.281,2.186 0.301,0.829 0.528,1.809 0.678,3.015 0.151,1.131 0.302,2.563 0.302,4.221 0.075,1.659 0.075,3.694 0.075,5.955 0.001,2.263 0.001,4.223 -0.075,5.882 z"
   id="path2" />
			<path
   style="fill:#b12a27"
   d="M 213.18,63.323 V 53.222 h -38.37 v 58.195 h 11.383 V 87.823 h 22.992 V 77.646 H 186.193 V 63.323 Z"
   id="path3" />
		</g>
		<g
   id="g4">
			<path
   style="fill:#b12a27"
   d="m 110.132,64.379 c -0.905,-2.186 -2.111,-4.146 -3.769,-5.804 -1.658,-1.658 -3.694,-3.015 -6.031,-3.92 -2.412,-0.98 -5.126,-1.432 -8.141,-1.432 h -22.54 v 58.195 H 81.034 V 89.481 h 11.157 c 3.015,0 5.729,-0.452 8.141,-1.432 2.337,-0.905 4.372,-2.261 6.031,-3.92 1.659,-1.658 2.865,-3.543 3.769,-5.804 0.829,-2.186 1.282,-4.523 1.282,-6.935 -0.001,-2.488 -0.453,-4.825 -1.282,-7.011 z M 97.844,77.118 c -1.508,1.432 -3.618,2.186 -6.181,2.186 H 81.034 V 63.323 h 10.629 c 2.563,0 4.674,0.754 6.181,2.261 1.432,1.432 2.186,3.392 2.186,5.804 0.001,2.338 -0.753,4.298 -2.186,5.73 z"
   id="path4" />
		</g>
	</g>
	<polygon
   style="opacity:0.08;fill:#040000"
   points="289.995,177.377 412.491,54.881 475.435,117.825 475.435,512 47.791,512 47.791,419.581 247.705,219.667 259.54,207.832 266.098,201.273 277.029,190.343 "
   id="polygon5" />
	<polygon
   style="fill:#771b1b"
   points="357.599,0 475.435,117.836 357.599,117.836 "
   id="polygon6" />
	<g
   id="g6">
		<path
   style="fill:#f2f2f2"
   d="m 414.376,370.658 c -2.488,-4.372 -5.88,-8.518 -10.101,-12.287 -3.467,-3.166 -7.538,-6.106 -12.137,-8.82 -18.544,-10.93 -45.003,-16.207 -80.961,-16.207 h -3.618 c -1.96,-1.809 -3.995,-3.618 -6.106,-5.503 -13.644,-12.287 -24.499,-25.63 -32.942,-40.48 16.584,-36.561 24.499,-69.126 23.519,-96.867 -0.151,-4.674 -0.829,-9.046 -2.035,-13.117 -1.809,-6.558 -4.824,-12.363 -9.046,-17.112 -0.075,-0.075 -0.075,-0.075 -0.151,-0.151 -6.709,-7.538 -16.056,-11.835 -25.555,-11.835 -9.574,0 -18.393,4.146 -24.801,11.76 -6.332,7.538 -9.724,17.866 -9.875,30.002 -0.226,18.544 1.281,36.108 4.448,52.315 0.301,1.282 0.528,2.563 0.829,3.844 3.166,14.7 7.84,28.645 13.87,41.611 -7.086,14.398 -14.247,26.836 -19.223,35.279 -3.769,6.408 -7.915,13.117 -12.212,19.826 -19.373,3.468 -35.807,7.689 -50.129,12.966 -19.373,7.011 -34.902,16.056 -46.059,26.836 -7.237,6.935 -12.137,14.323 -14.549,22.012 -2.563,7.915 -2.412,15.83 0.452,22.916 2.638,6.558 7.387,12.061 13.72,15.83 1.508,0.905 3.091,1.658 4.749,2.337 4.825,1.96 10.101,3.015 15.604,3.015 12.74,0 25.856,-5.503 36.937,-15.378 20.655,-18.469 41.988,-48.169 54.577,-66.94 10.327,-1.583 21.559,-2.94 34.224,-4.297 14.926,-1.508 28.118,-2.412 40.104,-2.865 3.694,3.317 7.237,6.483 10.629,9.498 18.846,16.81 33.168,28.947 46.134,37.465 0,0.075 0.075,0.075 0.151,0.075 5.126,3.392 10.026,6.181 14.926,8.443 5.503,2.563 11.081,3.92 16.81,3.92 7.237,0 14.021,-2.186 19.675,-6.181 5.729,-4.146 9.875,-10.101 11.76,-16.81 2.186,-8.064 0.905,-17.034 -3.618,-25.1 z M 247.705,219.667 c -1.055,-9.348 -1.508,-19.072 -1.357,-29.324 0.151,-9.724 3.694,-16.283 8.895,-16.283 3.92,0 8.066,3.543 9.95,10.327 0.528,2.035 0.905,4.372 0.98,7.01 0.151,3.166 0.075,6.483 -0.075,9.875 -0.452,9.574 -2.111,19.75 -4.975,30.681 -1.734,7.011 -3.995,14.323 -6.784,21.936 -3.166,-10.703 -5.428,-22.086 -6.634,-34.222 z M 121.967,418.073 c -1.282,-3.166 0.151,-9.272 7.991,-16.81 11.986,-11.458 30.756,-20.504 56.914,-27.364 -4.975,6.784 -9.875,12.966 -14.624,18.619 -7.237,8.744 -14.172,16.132 -20.429,21.71 -5.352,4.824 -11.232,7.84 -16.81,8.594 -0.98,0.151 -1.96,0.226 -2.94,0.226 -4.901,10e-4 -8.896,-1.959 -10.102,-4.975 z m 120.461,-80.131 0.528,-0.829 -0.829,0.151 c 0.151,-0.377 0.377,-0.754 0.603,-1.055 3.166,-5.352 7.161,-12.212 11.458,-20.127 l 0.377,0.829 0.98,-2.035 c 3.166,4.523 6.634,8.971 10.252,13.267 1.734,2.035 3.543,3.995 5.352,5.955 l -1.206,0.075 1.055,0.98 c -3.091,0.226 -6.332,0.528 -9.574,0.829 -2.035,0.226 -4.146,0.377 -6.257,0.603 -4.371,0.452 -8.668,0.905 -12.739,1.357 z m 126.869,47.038 c -8.971,-5.729 -18.996,-13.795 -31.359,-24.575 17.564,1.809 31.359,5.654 41.159,11.383 4.297,2.488 7.538,5.051 9.724,7.538 3.618,3.844 4.9,7.312 4.221,9.649 -0.603,2.337 -3.241,3.92 -6.483,3.92 -1.885,0 -3.844,-0.452 -5.88,-1.432 -3.468,-1.658 -7.086,-3.694 -10.93,-6.181 -0.151,0 -0.301,-0.151 -0.452,-0.302 z"
   id="path6" />
	</g>
</g></svg>
